<svg width="20" height="22" viewBox="0 0 20 22" fill="none" xmlns="http://www.w3.org/2000/svg">
<g opacity="0.78">
<path d="M11.6667 7.33332V5.49999C11.6667 5.01376 11.4911 4.54744 11.1785 4.20363C10.866 3.85981 10.442 3.66666 10 3.66666H4.16667C3.72464 3.66666 3.30072 3.85981 2.98816 4.20363C2.67559 4.54744 2.5 5.01376 2.5 5.49999V16.5C2.5 16.9862 2.67559 17.4525 2.98816 17.7964C3.30072 18.1402 3.72464 18.3333 4.16667 18.3333H10C10.442 18.3333 10.866 18.1402 11.1785 17.7964C11.4911 17.4525 11.6667 16.9862 11.6667 16.5V14.6667" stroke="#F1F1F1" stroke-width="2" stroke-linecap="round" stroke-linejoin="round"/>
<path d="M7.5 11H17.5M17.5 11L15 8.25M17.5 11L15 13.75" stroke="#F1F1F1" stroke-width="2" stroke-linecap="round" stroke-linejoin="round"/>
</g>
</svg>
